<mxfile host="app.diagrams.net" agent="Mozilla/5.0 (Macintosh; Intel Mac OS X 10_15_7) AppleWebKit/605.1.15 (KHTML, like Gecko) Version/18.4 Safari/605.1.15" version="26.2.14">
  <diagram id="C5RBs43oDa-KdzZeNtuy" name="Page-1">
    <mxGraphModel dx="1940" dy="800" grid="1" gridSize="10" guides="1" tooltips="1" connect="1" arrows="1" fold="1" page="1" pageScale="1" pageWidth="827" pageHeight="1169" math="0" shadow="0">
      <root>
        <mxCell id="WIyWlLk6GJQsqaUBKTNV-0" />
        <mxCell id="WIyWlLk6GJQsqaUBKTNV-1" parent="WIyWlLk6GJQsqaUBKTNV-0" />
        <mxCell id="WIyWlLk6GJQsqaUBKTNV-2" value="" style="rounded=0;html=1;jettySize=auto;orthogonalLoop=1;fontSize=11;endArrow=block;endFill=0;endSize=8;strokeWidth=1;shadow=0;labelBackgroundColor=none;edgeStyle=orthogonalEdgeStyle;" parent="WIyWlLk6GJQsqaUBKTNV-1" source="WIyWlLk6GJQsqaUBKTNV-3" target="WIyWlLk6GJQsqaUBKTNV-6" edge="1">
          <mxGeometry relative="1" as="geometry" />
        </mxCell>
        <mxCell id="WIyWlLk6GJQsqaUBKTNV-3" value="A random guessed n letters word" style="rounded=1;whiteSpace=wrap;html=1;fontSize=12;glass=0;strokeWidth=1;shadow=0;" parent="WIyWlLk6GJQsqaUBKTNV-1" vertex="1">
          <mxGeometry x="185" y="20" width="130" height="50" as="geometry" />
        </mxCell>
        <mxCell id="WIyWlLk6GJQsqaUBKTNV-5" value="Included&amp;nbsp;" style="edgeStyle=orthogonalEdgeStyle;rounded=0;html=1;jettySize=auto;orthogonalLoop=1;fontSize=11;endArrow=block;endFill=0;endSize=8;strokeWidth=1;shadow=0;labelBackgroundColor=none;" parent="WIyWlLk6GJQsqaUBKTNV-1" source="WIyWlLk6GJQsqaUBKTNV-6" target="WIyWlLk6GJQsqaUBKTNV-7" edge="1">
          <mxGeometry y="10" relative="1" as="geometry">
            <mxPoint as="offset" />
            <Array as="points">
              <mxPoint x="320" y="220" />
              <mxPoint x="320" y="220" />
            </Array>
          </mxGeometry>
        </mxCell>
        <mxCell id="WIyWlLk6GJQsqaUBKTNV-6" value="User who has a 6 chance letter guess; try to guess &amp;nbsp;one letter" style="rhombus;whiteSpace=wrap;html=1;shadow=0;fontFamily=Helvetica;fontSize=12;align=center;strokeWidth=1;spacing=6;spacingTop=-4;" parent="WIyWlLk6GJQsqaUBKTNV-1" vertex="1">
          <mxGeometry x="170" y="120" width="160" height="130" as="geometry" />
        </mxCell>
        <mxCell id="WIyWlLk6GJQsqaUBKTNV-7" value="User still has n chance" style="rounded=1;whiteSpace=wrap;html=1;fontSize=12;glass=0;strokeWidth=1;shadow=0;" parent="WIyWlLk6GJQsqaUBKTNV-1" vertex="1">
          <mxGeometry x="414" y="250" width="120" height="40" as="geometry" />
        </mxCell>
        <mxCell id="TZgdga29-gHt7Y1s_UGH-0" value="" style="endArrow=classic;html=1;rounded=0;" edge="1" parent="WIyWlLk6GJQsqaUBKTNV-1">
          <mxGeometry width="50" height="50" relative="1" as="geometry">
            <mxPoint x="210" y="220" as="sourcePoint" />
            <mxPoint x="50" y="238" as="targetPoint" />
            <Array as="points">
              <mxPoint x="50" y="220" />
            </Array>
          </mxGeometry>
        </mxCell>
        <mxCell id="TZgdga29-gHt7Y1s_UGH-1" value="n-1 chance left" style="rounded=1;whiteSpace=wrap;html=1;" vertex="1" parent="WIyWlLk6GJQsqaUBKTNV-1">
          <mxGeometry x="-10" y="240" width="120" height="40" as="geometry" />
        </mxCell>
        <mxCell id="TZgdga29-gHt7Y1s_UGH-2" value="Not included" style="text;html=1;align=center;verticalAlign=middle;resizable=0;points=[];autosize=1;strokeColor=none;fillColor=none;" vertex="1" parent="WIyWlLk6GJQsqaUBKTNV-1">
          <mxGeometry x="85" y="198" width="90" height="30" as="geometry" />
        </mxCell>
        <mxCell id="TZgdga29-gHt7Y1s_UGH-3" value="Head is on the death still n letters" style="rounded=1;whiteSpace=wrap;html=1;" vertex="1" parent="WIyWlLk6GJQsqaUBKTNV-1">
          <mxGeometry x="-10" y="310" width="120" height="40" as="geometry" />
        </mxCell>
        <mxCell id="TZgdga29-gHt7Y1s_UGH-4" value="" style="endArrow=classic;html=1;rounded=0;entryX=0.5;entryY=0;entryDx=0;entryDy=0;" edge="1" parent="WIyWlLk6GJQsqaUBKTNV-1" target="TZgdga29-gHt7Y1s_UGH-3">
          <mxGeometry width="50" height="50" relative="1" as="geometry">
            <mxPoint x="50" y="280" as="sourcePoint" />
            <mxPoint x="100" y="230" as="targetPoint" />
          </mxGeometry>
        </mxCell>
        <mxCell id="TZgdga29-gHt7Y1s_UGH-5" value="User should guess again" style="rhombus;whiteSpace=wrap;html=1;" vertex="1" parent="WIyWlLk6GJQsqaUBKTNV-1">
          <mxGeometry x="-12.5" y="495" width="122.5" height="115" as="geometry" />
        </mxCell>
        <mxCell id="TZgdga29-gHt7Y1s_UGH-32" value="" style="edgeStyle=orthogonalEdgeStyle;rounded=0;orthogonalLoop=1;jettySize=auto;html=1;" edge="1" parent="WIyWlLk6GJQsqaUBKTNV-1" source="TZgdga29-gHt7Y1s_UGH-9" target="TZgdga29-gHt7Y1s_UGH-20">
          <mxGeometry relative="1" as="geometry">
            <Array as="points">
              <mxPoint x="472" y="360" />
              <mxPoint x="472" y="360" />
            </Array>
          </mxGeometry>
        </mxCell>
        <mxCell id="TZgdga29-gHt7Y1s_UGH-9" value="n-1 letters left to guess in the word" style="rounded=1;whiteSpace=wrap;html=1;" vertex="1" parent="WIyWlLk6GJQsqaUBKTNV-1">
          <mxGeometry x="414" y="310" width="120" height="40" as="geometry" />
        </mxCell>
        <mxCell id="TZgdga29-gHt7Y1s_UGH-10" value="" style="endArrow=classic;html=1;rounded=0;entryX=0.5;entryY=0;entryDx=0;entryDy=0;exitX=0.5;exitY=1;exitDx=0;exitDy=0;" edge="1" parent="WIyWlLk6GJQsqaUBKTNV-1" source="WIyWlLk6GJQsqaUBKTNV-7" target="TZgdga29-gHt7Y1s_UGH-9">
          <mxGeometry width="50" height="50" relative="1" as="geometry">
            <mxPoint x="470" y="290" as="sourcePoint" />
            <mxPoint x="520" y="240" as="targetPoint" />
          </mxGeometry>
        </mxCell>
        <mxCell id="TZgdga29-gHt7Y1s_UGH-12" value="User still has n-1 chance" style="rounded=1;whiteSpace=wrap;html=1;fontSize=12;glass=0;strokeWidth=1;shadow=0;" vertex="1" parent="WIyWlLk6GJQsqaUBKTNV-1">
          <mxGeometry x="87.5" y="605" width="120" height="40" as="geometry" />
        </mxCell>
        <mxCell id="TZgdga29-gHt7Y1s_UGH-13" value="n-1 letters left to guess" style="rounded=1;whiteSpace=wrap;html=1;" vertex="1" parent="WIyWlLk6GJQsqaUBKTNV-1">
          <mxGeometry x="87.5" y="670" width="120" height="40" as="geometry" />
        </mxCell>
        <mxCell id="TZgdga29-gHt7Y1s_UGH-14" value="" style="endArrow=classic;html=1;rounded=0;entryX=0.5;entryY=0;entryDx=0;entryDy=0;exitX=0.5;exitY=1;exitDx=0;exitDy=0;" edge="1" parent="WIyWlLk6GJQsqaUBKTNV-1" source="TZgdga29-gHt7Y1s_UGH-12" target="TZgdga29-gHt7Y1s_UGH-13">
          <mxGeometry width="50" height="50" relative="1" as="geometry">
            <mxPoint x="143.5" y="645" as="sourcePoint" />
            <mxPoint x="193.5" y="595" as="targetPoint" />
          </mxGeometry>
        </mxCell>
        <mxCell id="TZgdga29-gHt7Y1s_UGH-15" value="n-2 chance left" style="rounded=1;whiteSpace=wrap;html=1;" vertex="1" parent="WIyWlLk6GJQsqaUBKTNV-1">
          <mxGeometry x="-97.5" y="605" width="120" height="40" as="geometry" />
        </mxCell>
        <mxCell id="TZgdga29-gHt7Y1s_UGH-16" value="Body is on the death still n letters" style="rounded=1;whiteSpace=wrap;html=1;" vertex="1" parent="WIyWlLk6GJQsqaUBKTNV-1">
          <mxGeometry x="-97.5" y="670" width="120" height="40" as="geometry" />
        </mxCell>
        <mxCell id="TZgdga29-gHt7Y1s_UGH-17" value="" style="endArrow=classic;html=1;rounded=0;entryX=0.5;entryY=0;entryDx=0;entryDy=0;" edge="1" parent="WIyWlLk6GJQsqaUBKTNV-1" target="TZgdga29-gHt7Y1s_UGH-16">
          <mxGeometry width="50" height="50" relative="1" as="geometry">
            <mxPoint x="-37.5" y="645" as="sourcePoint" />
            <mxPoint x="12.5" y="595" as="targetPoint" />
          </mxGeometry>
        </mxCell>
        <mxCell id="TZgdga29-gHt7Y1s_UGH-18" value="" style="endArrow=classic;html=1;rounded=0;entryX=0.5;entryY=0;entryDx=0;entryDy=0;exitX=1;exitY=1;exitDx=0;exitDy=0;" edge="1" parent="WIyWlLk6GJQsqaUBKTNV-1" source="TZgdga29-gHt7Y1s_UGH-5" target="TZgdga29-gHt7Y1s_UGH-12">
          <mxGeometry width="50" height="50" relative="1" as="geometry">
            <mxPoint x="262.5" y="595" as="sourcePoint" />
            <mxPoint x="312.5" y="545" as="targetPoint" />
          </mxGeometry>
        </mxCell>
        <mxCell id="TZgdga29-gHt7Y1s_UGH-34" value="Included" style="edgeLabel;html=1;align=center;verticalAlign=middle;resizable=0;points=[];" vertex="1" connectable="0" parent="TZgdga29-gHt7Y1s_UGH-18">
          <mxGeometry x="-0.1367" y="2" relative="1" as="geometry">
            <mxPoint as="offset" />
          </mxGeometry>
        </mxCell>
        <mxCell id="TZgdga29-gHt7Y1s_UGH-19" value="" style="endArrow=classic;html=1;rounded=0;exitX=0;exitY=1;exitDx=0;exitDy=0;entryX=0.5;entryY=0;entryDx=0;entryDy=0;" edge="1" parent="WIyWlLk6GJQsqaUBKTNV-1" source="TZgdga29-gHt7Y1s_UGH-5" target="TZgdga29-gHt7Y1s_UGH-15">
          <mxGeometry width="50" height="50" relative="1" as="geometry">
            <mxPoint x="262.5" y="595" as="sourcePoint" />
            <mxPoint x="312.5" y="545" as="targetPoint" />
          </mxGeometry>
        </mxCell>
        <mxCell id="TZgdga29-gHt7Y1s_UGH-35" value="Not included" style="edgeLabel;html=1;align=center;verticalAlign=middle;resizable=0;points=[];" vertex="1" connectable="0" parent="TZgdga29-gHt7Y1s_UGH-19">
          <mxGeometry x="0.1366" y="-3" relative="1" as="geometry">
            <mxPoint x="1" as="offset" />
          </mxGeometry>
        </mxCell>
        <mxCell id="TZgdga29-gHt7Y1s_UGH-20" value="User should guess again" style="rhombus;whiteSpace=wrap;html=1;" vertex="1" parent="WIyWlLk6GJQsqaUBKTNV-1">
          <mxGeometry x="410" y="375" width="126.5" height="95" as="geometry" />
        </mxCell>
        <mxCell id="TZgdga29-gHt7Y1s_UGH-21" value="User still has n chance" style="rounded=1;whiteSpace=wrap;html=1;fontSize=12;glass=0;strokeWidth=1;shadow=0;" vertex="1" parent="WIyWlLk6GJQsqaUBKTNV-1">
          <mxGeometry x="506.5" y="485" width="120" height="40" as="geometry" />
        </mxCell>
        <mxCell id="TZgdga29-gHt7Y1s_UGH-22" value="n-2 letters left to guess" style="rounded=1;whiteSpace=wrap;html=1;" vertex="1" parent="WIyWlLk6GJQsqaUBKTNV-1">
          <mxGeometry x="506.5" y="545" width="120" height="40" as="geometry" />
        </mxCell>
        <mxCell id="TZgdga29-gHt7Y1s_UGH-23" value="" style="endArrow=classic;html=1;rounded=0;exitX=0.5;exitY=1;exitDx=0;exitDy=0;" edge="1" parent="WIyWlLk6GJQsqaUBKTNV-1" source="TZgdga29-gHt7Y1s_UGH-21" target="TZgdga29-gHt7Y1s_UGH-22">
          <mxGeometry width="50" height="50" relative="1" as="geometry">
            <mxPoint x="562.5" y="525" as="sourcePoint" />
            <mxPoint x="612.5" y="475" as="targetPoint" />
          </mxGeometry>
        </mxCell>
        <mxCell id="TZgdga29-gHt7Y1s_UGH-24" value="n-1 chance left" style="rounded=1;whiteSpace=wrap;html=1;" vertex="1" parent="WIyWlLk6GJQsqaUBKTNV-1">
          <mxGeometry x="321.5" y="485" width="120" height="40" as="geometry" />
        </mxCell>
        <mxCell id="TZgdga29-gHt7Y1s_UGH-25" value="Head is on the death still n letters" style="rounded=1;whiteSpace=wrap;html=1;" vertex="1" parent="WIyWlLk6GJQsqaUBKTNV-1">
          <mxGeometry x="321.5" y="544.5" width="120" height="40" as="geometry" />
        </mxCell>
        <mxCell id="TZgdga29-gHt7Y1s_UGH-26" value="" style="endArrow=classic;html=1;rounded=0;entryX=0.5;entryY=0;entryDx=0;entryDy=0;" edge="1" parent="WIyWlLk6GJQsqaUBKTNV-1" target="TZgdga29-gHt7Y1s_UGH-25">
          <mxGeometry width="50" height="50" relative="1" as="geometry">
            <mxPoint x="381.5" y="525" as="sourcePoint" />
            <mxPoint x="431.5" y="475" as="targetPoint" />
          </mxGeometry>
        </mxCell>
        <mxCell id="TZgdga29-gHt7Y1s_UGH-27" value="" style="endArrow=classic;html=1;rounded=0;entryX=0.5;entryY=0;entryDx=0;entryDy=0;exitX=1;exitY=1;exitDx=0;exitDy=0;" edge="1" parent="WIyWlLk6GJQsqaUBKTNV-1" source="TZgdga29-gHt7Y1s_UGH-20" target="TZgdga29-gHt7Y1s_UGH-21">
          <mxGeometry width="50" height="50" relative="1" as="geometry">
            <mxPoint x="681.5" y="475" as="sourcePoint" />
            <mxPoint x="731.5" y="425" as="targetPoint" />
          </mxGeometry>
        </mxCell>
        <mxCell id="TZgdga29-gHt7Y1s_UGH-36" value="Included" style="edgeLabel;html=1;align=center;verticalAlign=middle;resizable=0;points=[];" vertex="1" connectable="0" parent="TZgdga29-gHt7Y1s_UGH-27">
          <mxGeometry x="-0.1605" y="3" relative="1" as="geometry">
            <mxPoint x="-1" as="offset" />
          </mxGeometry>
        </mxCell>
        <mxCell id="TZgdga29-gHt7Y1s_UGH-28" value="" style="endArrow=classic;html=1;rounded=0;exitX=0;exitY=1;exitDx=0;exitDy=0;entryX=0.5;entryY=0;entryDx=0;entryDy=0;" edge="1" parent="WIyWlLk6GJQsqaUBKTNV-1" source="TZgdga29-gHt7Y1s_UGH-20" target="TZgdga29-gHt7Y1s_UGH-24">
          <mxGeometry width="50" height="50" relative="1" as="geometry">
            <mxPoint x="681.5" y="475" as="sourcePoint" />
            <mxPoint x="731.5" y="425" as="targetPoint" />
          </mxGeometry>
        </mxCell>
        <mxCell id="TZgdga29-gHt7Y1s_UGH-37" value="Not included" style="edgeLabel;html=1;align=center;verticalAlign=middle;resizable=0;points=[];" vertex="1" connectable="0" parent="TZgdga29-gHt7Y1s_UGH-28">
          <mxGeometry x="-0.0246" y="-3" relative="1" as="geometry">
            <mxPoint as="offset" />
          </mxGeometry>
        </mxCell>
        <mxCell id="TZgdga29-gHt7Y1s_UGH-33" value="The Hangman" style="text;strokeColor=none;fillColor=none;align=left;verticalAlign=middle;spacingLeft=4;spacingRight=4;overflow=hidden;points=[[0,0.5],[1,0.5]];portConstraint=eastwest;rotatable=0;whiteSpace=wrap;html=1;" vertex="1" parent="WIyWlLk6GJQsqaUBKTNV-1">
          <mxGeometry x="10" y="10" width="90" height="50" as="geometry" />
        </mxCell>
        <mxCell id="TZgdga29-gHt7Y1s_UGH-38" value="" style="endArrow=classic;html=1;rounded=0;exitX=0.5;exitY=1;exitDx=0;exitDy=0;entryX=0.5;entryY=0;entryDx=0;entryDy=0;" edge="1" parent="WIyWlLk6GJQsqaUBKTNV-1" source="TZgdga29-gHt7Y1s_UGH-3" target="TZgdga29-gHt7Y1s_UGH-5">
          <mxGeometry width="50" height="50" relative="1" as="geometry">
            <mxPoint x="120" y="570" as="sourcePoint" />
            <mxPoint x="55" y="600" as="targetPoint" />
          </mxGeometry>
        </mxCell>
        <mxCell id="TZgdga29-gHt7Y1s_UGH-39" value="" style="endArrow=classic;html=1;rounded=0;entryX=1;entryY=0.5;entryDx=0;entryDy=0;" edge="1" parent="WIyWlLk6GJQsqaUBKTNV-1" target="TZgdga29-gHt7Y1s_UGH-5">
          <mxGeometry width="50" height="50" relative="1" as="geometry">
            <mxPoint x="320" y="553" as="sourcePoint" />
            <mxPoint x="300" y="430" as="targetPoint" />
          </mxGeometry>
        </mxCell>
        <mxCell id="TZgdga29-gHt7Y1s_UGH-41" value="User should guess again" style="rhombus;whiteSpace=wrap;html=1;" vertex="1" parent="WIyWlLk6GJQsqaUBKTNV-1">
          <mxGeometry x="-5" y="750" width="122.5" height="115" as="geometry" />
        </mxCell>
        <mxCell id="TZgdga29-gHt7Y1s_UGH-42" value="User still has n-1 chance" style="rounded=1;whiteSpace=wrap;html=1;fontSize=12;glass=0;strokeWidth=1;shadow=0;" vertex="1" parent="WIyWlLk6GJQsqaUBKTNV-1">
          <mxGeometry x="95" y="860" width="120" height="40" as="geometry" />
        </mxCell>
        <mxCell id="TZgdga29-gHt7Y1s_UGH-43" value="n-1 letters left to guess" style="rounded=1;whiteSpace=wrap;html=1;" vertex="1" parent="WIyWlLk6GJQsqaUBKTNV-1">
          <mxGeometry x="95" y="925" width="120" height="40" as="geometry" />
        </mxCell>
        <mxCell id="TZgdga29-gHt7Y1s_UGH-44" value="" style="endArrow=classic;html=1;rounded=0;entryX=0.5;entryY=0;entryDx=0;entryDy=0;exitX=0.5;exitY=1;exitDx=0;exitDy=0;" edge="1" parent="WIyWlLk6GJQsqaUBKTNV-1" source="TZgdga29-gHt7Y1s_UGH-42" target="TZgdga29-gHt7Y1s_UGH-43">
          <mxGeometry width="50" height="50" relative="1" as="geometry">
            <mxPoint x="151" y="900" as="sourcePoint" />
            <mxPoint x="201" y="850" as="targetPoint" />
          </mxGeometry>
        </mxCell>
        <mxCell id="TZgdga29-gHt7Y1s_UGH-45" value="n-3 chance left" style="rounded=1;whiteSpace=wrap;html=1;" vertex="1" parent="WIyWlLk6GJQsqaUBKTNV-1">
          <mxGeometry x="-90" y="860" width="120" height="40" as="geometry" />
        </mxCell>
        <mxCell id="TZgdga29-gHt7Y1s_UGH-46" value="1 arm is gone" style="rounded=1;whiteSpace=wrap;html=1;" vertex="1" parent="WIyWlLk6GJQsqaUBKTNV-1">
          <mxGeometry x="-90" y="925" width="120" height="40" as="geometry" />
        </mxCell>
        <mxCell id="TZgdga29-gHt7Y1s_UGH-47" value="" style="endArrow=classic;html=1;rounded=0;entryX=0.5;entryY=0;entryDx=0;entryDy=0;" edge="1" parent="WIyWlLk6GJQsqaUBKTNV-1" target="TZgdga29-gHt7Y1s_UGH-46">
          <mxGeometry width="50" height="50" relative="1" as="geometry">
            <mxPoint x="-30" y="900" as="sourcePoint" />
            <mxPoint x="20" y="850" as="targetPoint" />
          </mxGeometry>
        </mxCell>
        <mxCell id="TZgdga29-gHt7Y1s_UGH-48" value="" style="endArrow=classic;html=1;rounded=0;entryX=0.5;entryY=0;entryDx=0;entryDy=0;exitX=1;exitY=1;exitDx=0;exitDy=0;" edge="1" parent="WIyWlLk6GJQsqaUBKTNV-1" source="TZgdga29-gHt7Y1s_UGH-41" target="TZgdga29-gHt7Y1s_UGH-42">
          <mxGeometry width="50" height="50" relative="1" as="geometry">
            <mxPoint x="270" y="850" as="sourcePoint" />
            <mxPoint x="320" y="800" as="targetPoint" />
          </mxGeometry>
        </mxCell>
        <mxCell id="TZgdga29-gHt7Y1s_UGH-49" value="Included" style="edgeLabel;html=1;align=center;verticalAlign=middle;resizable=0;points=[];" vertex="1" connectable="0" parent="TZgdga29-gHt7Y1s_UGH-48">
          <mxGeometry x="-0.1367" y="2" relative="1" as="geometry">
            <mxPoint as="offset" />
          </mxGeometry>
        </mxCell>
        <mxCell id="TZgdga29-gHt7Y1s_UGH-50" value="" style="endArrow=classic;html=1;rounded=0;exitX=0;exitY=1;exitDx=0;exitDy=0;entryX=0.5;entryY=0;entryDx=0;entryDy=0;" edge="1" parent="WIyWlLk6GJQsqaUBKTNV-1" source="TZgdga29-gHt7Y1s_UGH-41" target="TZgdga29-gHt7Y1s_UGH-45">
          <mxGeometry width="50" height="50" relative="1" as="geometry">
            <mxPoint x="270" y="850" as="sourcePoint" />
            <mxPoint x="320" y="800" as="targetPoint" />
          </mxGeometry>
        </mxCell>
        <mxCell id="TZgdga29-gHt7Y1s_UGH-51" value="Not included" style="edgeLabel;html=1;align=center;verticalAlign=middle;resizable=0;points=[];" vertex="1" connectable="0" parent="TZgdga29-gHt7Y1s_UGH-50">
          <mxGeometry x="0.1366" y="-3" relative="1" as="geometry">
            <mxPoint x="1" as="offset" />
          </mxGeometry>
        </mxCell>
        <mxCell id="TZgdga29-gHt7Y1s_UGH-52" value="User should guess again" style="rhombus;whiteSpace=wrap;html=1;" vertex="1" parent="WIyWlLk6GJQsqaUBKTNV-1">
          <mxGeometry x="5" y="1000" width="122.5" height="115" as="geometry" />
        </mxCell>
        <mxCell id="TZgdga29-gHt7Y1s_UGH-53" value="User still has n-1 chance" style="rounded=1;whiteSpace=wrap;html=1;fontSize=12;glass=0;strokeWidth=1;shadow=0;" vertex="1" parent="WIyWlLk6GJQsqaUBKTNV-1">
          <mxGeometry x="105" y="1110" width="120" height="40" as="geometry" />
        </mxCell>
        <mxCell id="TZgdga29-gHt7Y1s_UGH-54" value="n-1 letters left to guess" style="rounded=1;whiteSpace=wrap;html=1;" vertex="1" parent="WIyWlLk6GJQsqaUBKTNV-1">
          <mxGeometry x="105" y="1175" width="120" height="40" as="geometry" />
        </mxCell>
        <mxCell id="TZgdga29-gHt7Y1s_UGH-55" value="" style="endArrow=classic;html=1;rounded=0;entryX=0.5;entryY=0;entryDx=0;entryDy=0;exitX=0.5;exitY=1;exitDx=0;exitDy=0;" edge="1" parent="WIyWlLk6GJQsqaUBKTNV-1" source="TZgdga29-gHt7Y1s_UGH-53" target="TZgdga29-gHt7Y1s_UGH-54">
          <mxGeometry width="50" height="50" relative="1" as="geometry">
            <mxPoint x="161" y="1150" as="sourcePoint" />
            <mxPoint x="211" y="1100" as="targetPoint" />
          </mxGeometry>
        </mxCell>
        <mxCell id="TZgdga29-gHt7Y1s_UGH-56" value="n-4 chance left" style="rounded=1;whiteSpace=wrap;html=1;" vertex="1" parent="WIyWlLk6GJQsqaUBKTNV-1">
          <mxGeometry x="-80" y="1110" width="120" height="40" as="geometry" />
        </mxCell>
        <mxCell id="TZgdga29-gHt7Y1s_UGH-57" value="Another arm is gone" style="rounded=1;whiteSpace=wrap;html=1;" vertex="1" parent="WIyWlLk6GJQsqaUBKTNV-1">
          <mxGeometry x="-80" y="1175" width="120" height="40" as="geometry" />
        </mxCell>
        <mxCell id="TZgdga29-gHt7Y1s_UGH-58" value="" style="endArrow=classic;html=1;rounded=0;entryX=0.5;entryY=0;entryDx=0;entryDy=0;" edge="1" parent="WIyWlLk6GJQsqaUBKTNV-1" target="TZgdga29-gHt7Y1s_UGH-57">
          <mxGeometry width="50" height="50" relative="1" as="geometry">
            <mxPoint x="-20" y="1150" as="sourcePoint" />
            <mxPoint x="30" y="1100" as="targetPoint" />
          </mxGeometry>
        </mxCell>
        <mxCell id="TZgdga29-gHt7Y1s_UGH-59" value="" style="endArrow=classic;html=1;rounded=0;entryX=0.5;entryY=0;entryDx=0;entryDy=0;exitX=1;exitY=1;exitDx=0;exitDy=0;" edge="1" parent="WIyWlLk6GJQsqaUBKTNV-1" source="TZgdga29-gHt7Y1s_UGH-52" target="TZgdga29-gHt7Y1s_UGH-53">
          <mxGeometry width="50" height="50" relative="1" as="geometry">
            <mxPoint x="280" y="1100" as="sourcePoint" />
            <mxPoint x="330" y="1050" as="targetPoint" />
          </mxGeometry>
        </mxCell>
        <mxCell id="TZgdga29-gHt7Y1s_UGH-60" value="Included" style="edgeLabel;html=1;align=center;verticalAlign=middle;resizable=0;points=[];" vertex="1" connectable="0" parent="TZgdga29-gHt7Y1s_UGH-59">
          <mxGeometry x="-0.1367" y="2" relative="1" as="geometry">
            <mxPoint as="offset" />
          </mxGeometry>
        </mxCell>
        <mxCell id="TZgdga29-gHt7Y1s_UGH-61" value="" style="endArrow=classic;html=1;rounded=0;exitX=0;exitY=1;exitDx=0;exitDy=0;entryX=0.5;entryY=0;entryDx=0;entryDy=0;" edge="1" parent="WIyWlLk6GJQsqaUBKTNV-1" source="TZgdga29-gHt7Y1s_UGH-52" target="TZgdga29-gHt7Y1s_UGH-56">
          <mxGeometry width="50" height="50" relative="1" as="geometry">
            <mxPoint x="280" y="1100" as="sourcePoint" />
            <mxPoint x="330" y="1050" as="targetPoint" />
          </mxGeometry>
        </mxCell>
        <mxCell id="TZgdga29-gHt7Y1s_UGH-62" value="Not included" style="edgeLabel;html=1;align=center;verticalAlign=middle;resizable=0;points=[];" vertex="1" connectable="0" parent="TZgdga29-gHt7Y1s_UGH-61">
          <mxGeometry x="0.1366" y="-3" relative="1" as="geometry">
            <mxPoint x="1" as="offset" />
          </mxGeometry>
        </mxCell>
        <mxCell id="TZgdga29-gHt7Y1s_UGH-73" value="User should guess again" style="rhombus;whiteSpace=wrap;html=1;" vertex="1" parent="WIyWlLk6GJQsqaUBKTNV-1">
          <mxGeometry x="15" y="1240" width="122.5" height="115" as="geometry" />
        </mxCell>
        <mxCell id="TZgdga29-gHt7Y1s_UGH-74" value="User still has n-1 chance" style="rounded=1;whiteSpace=wrap;html=1;fontSize=12;glass=0;strokeWidth=1;shadow=0;" vertex="1" parent="WIyWlLk6GJQsqaUBKTNV-1">
          <mxGeometry x="115" y="1350" width="120" height="40" as="geometry" />
        </mxCell>
        <mxCell id="TZgdga29-gHt7Y1s_UGH-75" value="n-1 letters left to guess" style="rounded=1;whiteSpace=wrap;html=1;" vertex="1" parent="WIyWlLk6GJQsqaUBKTNV-1">
          <mxGeometry x="115" y="1415" width="120" height="40" as="geometry" />
        </mxCell>
        <mxCell id="TZgdga29-gHt7Y1s_UGH-76" value="" style="endArrow=classic;html=1;rounded=0;entryX=0.5;entryY=0;entryDx=0;entryDy=0;exitX=0.5;exitY=1;exitDx=0;exitDy=0;" edge="1" parent="WIyWlLk6GJQsqaUBKTNV-1" source="TZgdga29-gHt7Y1s_UGH-74" target="TZgdga29-gHt7Y1s_UGH-75">
          <mxGeometry width="50" height="50" relative="1" as="geometry">
            <mxPoint x="171" y="1390" as="sourcePoint" />
            <mxPoint x="221" y="1340" as="targetPoint" />
          </mxGeometry>
        </mxCell>
        <mxCell id="TZgdga29-gHt7Y1s_UGH-77" value="n-5 chance left" style="rounded=1;whiteSpace=wrap;html=1;" vertex="1" parent="WIyWlLk6GJQsqaUBKTNV-1">
          <mxGeometry x="-70" y="1350" width="120" height="40" as="geometry" />
        </mxCell>
        <mxCell id="TZgdga29-gHt7Y1s_UGH-78" value="1 leg is gone" style="rounded=1;whiteSpace=wrap;html=1;" vertex="1" parent="WIyWlLk6GJQsqaUBKTNV-1">
          <mxGeometry x="-70" y="1415" width="120" height="40" as="geometry" />
        </mxCell>
        <mxCell id="TZgdga29-gHt7Y1s_UGH-79" value="" style="endArrow=classic;html=1;rounded=0;entryX=0.5;entryY=0;entryDx=0;entryDy=0;" edge="1" parent="WIyWlLk6GJQsqaUBKTNV-1" target="TZgdga29-gHt7Y1s_UGH-78">
          <mxGeometry width="50" height="50" relative="1" as="geometry">
            <mxPoint x="-10" y="1390" as="sourcePoint" />
            <mxPoint x="40" y="1340" as="targetPoint" />
          </mxGeometry>
        </mxCell>
        <mxCell id="TZgdga29-gHt7Y1s_UGH-80" value="" style="endArrow=classic;html=1;rounded=0;entryX=0.5;entryY=0;entryDx=0;entryDy=0;exitX=1;exitY=1;exitDx=0;exitDy=0;" edge="1" parent="WIyWlLk6GJQsqaUBKTNV-1" source="TZgdga29-gHt7Y1s_UGH-73" target="TZgdga29-gHt7Y1s_UGH-74">
          <mxGeometry width="50" height="50" relative="1" as="geometry">
            <mxPoint x="290" y="1340" as="sourcePoint" />
            <mxPoint x="340" y="1290" as="targetPoint" />
          </mxGeometry>
        </mxCell>
        <mxCell id="TZgdga29-gHt7Y1s_UGH-81" value="Included" style="edgeLabel;html=1;align=center;verticalAlign=middle;resizable=0;points=[];" vertex="1" connectable="0" parent="TZgdga29-gHt7Y1s_UGH-80">
          <mxGeometry x="-0.1367" y="2" relative="1" as="geometry">
            <mxPoint as="offset" />
          </mxGeometry>
        </mxCell>
        <mxCell id="TZgdga29-gHt7Y1s_UGH-82" value="" style="endArrow=classic;html=1;rounded=0;exitX=0;exitY=1;exitDx=0;exitDy=0;entryX=0.5;entryY=0;entryDx=0;entryDy=0;" edge="1" parent="WIyWlLk6GJQsqaUBKTNV-1" source="TZgdga29-gHt7Y1s_UGH-73" target="TZgdga29-gHt7Y1s_UGH-77">
          <mxGeometry width="50" height="50" relative="1" as="geometry">
            <mxPoint x="290" y="1340" as="sourcePoint" />
            <mxPoint x="340" y="1290" as="targetPoint" />
          </mxGeometry>
        </mxCell>
        <mxCell id="TZgdga29-gHt7Y1s_UGH-83" value="Not included" style="edgeLabel;html=1;align=center;verticalAlign=middle;resizable=0;points=[];" vertex="1" connectable="0" parent="TZgdga29-gHt7Y1s_UGH-82">
          <mxGeometry x="0.1366" y="-3" relative="1" as="geometry">
            <mxPoint x="1" as="offset" />
          </mxGeometry>
        </mxCell>
        <mxCell id="TZgdga29-gHt7Y1s_UGH-84" value="User should guess again" style="rhombus;whiteSpace=wrap;html=1;" vertex="1" parent="WIyWlLk6GJQsqaUBKTNV-1">
          <mxGeometry x="25" y="1490" width="122.5" height="115" as="geometry" />
        </mxCell>
        <mxCell id="TZgdga29-gHt7Y1s_UGH-85" value="User still has n-1 chance" style="rounded=1;whiteSpace=wrap;html=1;fontSize=12;glass=0;strokeWidth=1;shadow=0;" vertex="1" parent="WIyWlLk6GJQsqaUBKTNV-1">
          <mxGeometry x="125" y="1600" width="120" height="40" as="geometry" />
        </mxCell>
        <mxCell id="TZgdga29-gHt7Y1s_UGH-86" value="n-1 letters left to guess" style="rounded=1;whiteSpace=wrap;html=1;" vertex="1" parent="WIyWlLk6GJQsqaUBKTNV-1">
          <mxGeometry x="125" y="1665" width="120" height="40" as="geometry" />
        </mxCell>
        <mxCell id="TZgdga29-gHt7Y1s_UGH-87" value="" style="endArrow=classic;html=1;rounded=0;entryX=0.5;entryY=0;entryDx=0;entryDy=0;exitX=0.5;exitY=1;exitDx=0;exitDy=0;" edge="1" parent="WIyWlLk6GJQsqaUBKTNV-1" source="TZgdga29-gHt7Y1s_UGH-85" target="TZgdga29-gHt7Y1s_UGH-86">
          <mxGeometry width="50" height="50" relative="1" as="geometry">
            <mxPoint x="181" y="1640" as="sourcePoint" />
            <mxPoint x="231" y="1590" as="targetPoint" />
          </mxGeometry>
        </mxCell>
        <mxCell id="TZgdga29-gHt7Y1s_UGH-88" value="n-6 chance left" style="rounded=1;whiteSpace=wrap;html=1;" vertex="1" parent="WIyWlLk6GJQsqaUBKTNV-1">
          <mxGeometry x="-60" y="1600" width="120" height="40" as="geometry" />
        </mxCell>
        <mxCell id="TZgdga29-gHt7Y1s_UGH-89" value="Dead" style="rounded=1;whiteSpace=wrap;html=1;" vertex="1" parent="WIyWlLk6GJQsqaUBKTNV-1">
          <mxGeometry x="-60" y="1665" width="120" height="40" as="geometry" />
        </mxCell>
        <mxCell id="TZgdga29-gHt7Y1s_UGH-90" value="" style="endArrow=classic;html=1;rounded=0;entryX=0.5;entryY=0;entryDx=0;entryDy=0;" edge="1" parent="WIyWlLk6GJQsqaUBKTNV-1" target="TZgdga29-gHt7Y1s_UGH-89">
          <mxGeometry width="50" height="50" relative="1" as="geometry">
            <mxPoint y="1640" as="sourcePoint" />
            <mxPoint x="50" y="1590" as="targetPoint" />
          </mxGeometry>
        </mxCell>
        <mxCell id="TZgdga29-gHt7Y1s_UGH-91" value="" style="endArrow=classic;html=1;rounded=0;entryX=0.5;entryY=0;entryDx=0;entryDy=0;exitX=1;exitY=1;exitDx=0;exitDy=0;" edge="1" parent="WIyWlLk6GJQsqaUBKTNV-1" source="TZgdga29-gHt7Y1s_UGH-84" target="TZgdga29-gHt7Y1s_UGH-85">
          <mxGeometry width="50" height="50" relative="1" as="geometry">
            <mxPoint x="300" y="1590" as="sourcePoint" />
            <mxPoint x="350" y="1540" as="targetPoint" />
          </mxGeometry>
        </mxCell>
        <mxCell id="TZgdga29-gHt7Y1s_UGH-92" value="Included" style="edgeLabel;html=1;align=center;verticalAlign=middle;resizable=0;points=[];" vertex="1" connectable="0" parent="TZgdga29-gHt7Y1s_UGH-91">
          <mxGeometry x="-0.1367" y="2" relative="1" as="geometry">
            <mxPoint as="offset" />
          </mxGeometry>
        </mxCell>
        <mxCell id="TZgdga29-gHt7Y1s_UGH-93" value="" style="endArrow=classic;html=1;rounded=0;exitX=0;exitY=1;exitDx=0;exitDy=0;entryX=0.5;entryY=0;entryDx=0;entryDy=0;" edge="1" parent="WIyWlLk6GJQsqaUBKTNV-1" source="TZgdga29-gHt7Y1s_UGH-84" target="TZgdga29-gHt7Y1s_UGH-88">
          <mxGeometry width="50" height="50" relative="1" as="geometry">
            <mxPoint x="300" y="1590" as="sourcePoint" />
            <mxPoint x="350" y="1540" as="targetPoint" />
          </mxGeometry>
        </mxCell>
        <mxCell id="TZgdga29-gHt7Y1s_UGH-94" value="Not included" style="edgeLabel;html=1;align=center;verticalAlign=middle;resizable=0;points=[];" vertex="1" connectable="0" parent="TZgdga29-gHt7Y1s_UGH-93">
          <mxGeometry x="0.1366" y="-3" relative="1" as="geometry">
            <mxPoint x="1" as="offset" />
          </mxGeometry>
        </mxCell>
        <mxCell id="TZgdga29-gHt7Y1s_UGH-100" value="start" style="rounded=1;whiteSpace=wrap;html=1;" vertex="1" parent="WIyWlLk6GJQsqaUBKTNV-1">
          <mxGeometry x="860" y="5" width="110" height="35" as="geometry" />
        </mxCell>
        <mxCell id="TZgdga29-gHt7Y1s_UGH-101" value="generate a random word" style="rounded=1;whiteSpace=wrap;html=1;" vertex="1" parent="WIyWlLk6GJQsqaUBKTNV-1">
          <mxGeometry x="810" y="60" width="210" height="40" as="geometry" />
        </mxCell>
        <mxCell id="TZgdga29-gHt7Y1s_UGH-102" value="generate as many blanks as letters in word" style="rounded=1;whiteSpace=wrap;html=1;" vertex="1" parent="WIyWlLk6GJQsqaUBKTNV-1">
          <mxGeometry x="810" y="120" width="210" height="50" as="geometry" />
        </mxCell>
        <mxCell id="TZgdga29-gHt7Y1s_UGH-104" value="ask the user to guess a letter" style="rounded=1;whiteSpace=wrap;html=1;" vertex="1" parent="WIyWlLk6GJQsqaUBKTNV-1">
          <mxGeometry x="810" y="190" width="210" height="50" as="geometry" />
        </mxCell>
        <mxCell id="TZgdga29-gHt7Y1s_UGH-105" value="Is the guessed letter in the word?" style="rhombus;whiteSpace=wrap;html=1;" vertex="1" parent="WIyWlLk6GJQsqaUBKTNV-1">
          <mxGeometry x="845" y="260" width="140" height="80" as="geometry" />
        </mxCell>
        <mxCell id="TZgdga29-gHt7Y1s_UGH-106" value="Replace the blank with the letter" style="rounded=1;whiteSpace=wrap;html=1;" vertex="1" parent="WIyWlLk6GJQsqaUBKTNV-1">
          <mxGeometry x="717.5" y="350" width="150" height="50" as="geometry" />
        </mxCell>
        <mxCell id="TZgdga29-gHt7Y1s_UGH-107" value="Lose a life" style="rounded=1;whiteSpace=wrap;html=1;" vertex="1" parent="WIyWlLk6GJQsqaUBKTNV-1">
          <mxGeometry x="950" y="355" width="150" height="40" as="geometry" />
        </mxCell>
        <mxCell id="TZgdga29-gHt7Y1s_UGH-108" value="" style="endArrow=classic;html=1;rounded=0;entryX=0.5;entryY=0;entryDx=0;entryDy=0;" edge="1" parent="WIyWlLk6GJQsqaUBKTNV-1" target="TZgdga29-gHt7Y1s_UGH-106">
          <mxGeometry width="50" height="50" relative="1" as="geometry">
            <mxPoint x="850" y="300" as="sourcePoint" />
            <mxPoint x="900" y="250" as="targetPoint" />
            <Array as="points">
              <mxPoint x="795" y="300" />
            </Array>
          </mxGeometry>
        </mxCell>
        <mxCell id="TZgdga29-gHt7Y1s_UGH-110" value="yes" style="edgeLabel;html=1;align=center;verticalAlign=middle;resizable=0;points=[];" vertex="1" connectable="0" parent="TZgdga29-gHt7Y1s_UGH-108">
          <mxGeometry x="0.5182" y="-1" relative="1" as="geometry">
            <mxPoint as="offset" />
          </mxGeometry>
        </mxCell>
        <mxCell id="TZgdga29-gHt7Y1s_UGH-109" value="" style="endArrow=classic;html=1;rounded=0;" edge="1" parent="WIyWlLk6GJQsqaUBKTNV-1">
          <mxGeometry width="50" height="50" relative="1" as="geometry">
            <mxPoint x="980" y="300" as="sourcePoint" />
            <mxPoint x="1030" y="350" as="targetPoint" />
            <Array as="points">
              <mxPoint x="1030" y="300" />
            </Array>
          </mxGeometry>
        </mxCell>
        <mxCell id="TZgdga29-gHt7Y1s_UGH-111" value="no" style="edgeLabel;html=1;align=center;verticalAlign=middle;resizable=0;points=[];" vertex="1" connectable="0" parent="TZgdga29-gHt7Y1s_UGH-109">
          <mxGeometry x="0.3765" y="-1" relative="1" as="geometry">
            <mxPoint y="-1" as="offset" />
          </mxGeometry>
        </mxCell>
        <mxCell id="TZgdga29-gHt7Y1s_UGH-112" value="Have they run out the lives?" style="rounded=1;whiteSpace=wrap;html=1;" vertex="1" parent="WIyWlLk6GJQsqaUBKTNV-1">
          <mxGeometry x="960" y="425" width="130" height="65" as="geometry" />
        </mxCell>
        <mxCell id="TZgdga29-gHt7Y1s_UGH-113" value="Are all the blanks filled?" style="rounded=1;whiteSpace=wrap;html=1;" vertex="1" parent="WIyWlLk6GJQsqaUBKTNV-1">
          <mxGeometry x="725" y="435" width="135" height="60" as="geometry" />
        </mxCell>
        <mxCell id="TZgdga29-gHt7Y1s_UGH-114" value="" style="endArrow=classic;html=1;rounded=0;entryX=0;entryY=0.5;entryDx=0;entryDy=0;" edge="1" parent="WIyWlLk6GJQsqaUBKTNV-1" target="TZgdga29-gHt7Y1s_UGH-104">
          <mxGeometry width="50" height="50" relative="1" as="geometry">
            <mxPoint x="730" y="460" as="sourcePoint" />
            <mxPoint x="780" y="410" as="targetPoint" />
            <Array as="points">
              <mxPoint x="650" y="340" />
            </Array>
          </mxGeometry>
        </mxCell>
        <mxCell id="TZgdga29-gHt7Y1s_UGH-115" value="" style="endArrow=classic;html=1;rounded=0;entryX=1;entryY=0.25;entryDx=0;entryDy=0;" edge="1" parent="WIyWlLk6GJQsqaUBKTNV-1" target="TZgdga29-gHt7Y1s_UGH-104">
          <mxGeometry width="50" height="50" relative="1" as="geometry">
            <mxPoint x="1090" y="450" as="sourcePoint" />
            <mxPoint x="1140" y="400" as="targetPoint" />
            <Array as="points">
              <mxPoint x="1210" y="340" />
            </Array>
          </mxGeometry>
        </mxCell>
        <mxCell id="TZgdga29-gHt7Y1s_UGH-116" value="no" style="text;html=1;align=center;verticalAlign=middle;resizable=0;points=[];autosize=1;strokeColor=none;fillColor=none;" vertex="1" parent="WIyWlLk6GJQsqaUBKTNV-1">
          <mxGeometry x="640" y="368" width="40" height="30" as="geometry" />
        </mxCell>
        <mxCell id="TZgdga29-gHt7Y1s_UGH-117" value="no" style="text;html=1;align=center;verticalAlign=middle;resizable=0;points=[];autosize=1;strokeColor=none;fillColor=none;" vertex="1" parent="WIyWlLk6GJQsqaUBKTNV-1">
          <mxGeometry x="1170" y="368" width="40" height="30" as="geometry" />
        </mxCell>
        <mxCell id="TZgdga29-gHt7Y1s_UGH-118" value="" style="endArrow=classic;html=1;rounded=0;entryX=0.5;entryY=0;entryDx=0;entryDy=0;exitX=0.5;exitY=1;exitDx=0;exitDy=0;" edge="1" parent="WIyWlLk6GJQsqaUBKTNV-1" source="TZgdga29-gHt7Y1s_UGH-106" target="TZgdga29-gHt7Y1s_UGH-113">
          <mxGeometry width="50" height="50" relative="1" as="geometry">
            <mxPoint x="790" y="400" as="sourcePoint" />
            <mxPoint x="840" y="350" as="targetPoint" />
          </mxGeometry>
        </mxCell>
        <mxCell id="TZgdga29-gHt7Y1s_UGH-119" value="" style="endArrow=classic;html=1;rounded=0;exitX=0.5;exitY=1;exitDx=0;exitDy=0;entryX=0.5;entryY=0;entryDx=0;entryDy=0;" edge="1" parent="WIyWlLk6GJQsqaUBKTNV-1" source="TZgdga29-gHt7Y1s_UGH-107" target="TZgdga29-gHt7Y1s_UGH-112">
          <mxGeometry width="50" height="50" relative="1" as="geometry">
            <mxPoint x="1030" y="390" as="sourcePoint" />
            <mxPoint x="1080" y="340" as="targetPoint" />
          </mxGeometry>
        </mxCell>
        <mxCell id="TZgdga29-gHt7Y1s_UGH-120" value="" style="endArrow=classic;html=1;rounded=0;exitX=0.5;exitY=1;exitDx=0;exitDy=0;" edge="1" parent="WIyWlLk6GJQsqaUBKTNV-1" source="TZgdga29-gHt7Y1s_UGH-113">
          <mxGeometry width="50" height="50" relative="1" as="geometry">
            <mxPoint x="790" y="490" as="sourcePoint" />
            <mxPoint x="920" y="590" as="targetPoint" />
            <Array as="points">
              <mxPoint x="790" y="590" />
            </Array>
          </mxGeometry>
        </mxCell>
        <mxCell id="TZgdga29-gHt7Y1s_UGH-121" value="" style="endArrow=classic;html=1;rounded=0;exitX=0.5;exitY=1;exitDx=0;exitDy=0;" edge="1" parent="WIyWlLk6GJQsqaUBKTNV-1">
          <mxGeometry width="50" height="50" relative="1" as="geometry">
            <mxPoint x="1024.41" y="490" as="sourcePoint" />
            <mxPoint x="920" y="590" as="targetPoint" />
            <Array as="points">
              <mxPoint x="1024" y="590" />
            </Array>
          </mxGeometry>
        </mxCell>
        <mxCell id="TZgdga29-gHt7Y1s_UGH-122" value="" style="endArrow=none;html=1;rounded=0;" edge="1" parent="WIyWlLk6GJQsqaUBKTNV-1">
          <mxGeometry width="50" height="50" relative="1" as="geometry">
            <mxPoint x="920" y="640" as="sourcePoint" />
            <mxPoint x="920" y="590" as="targetPoint" />
          </mxGeometry>
        </mxCell>
        <mxCell id="TZgdga29-gHt7Y1s_UGH-123" value="yes" style="text;html=1;align=center;verticalAlign=middle;resizable=0;points=[];autosize=1;strokeColor=none;fillColor=none;" vertex="1" parent="WIyWlLk6GJQsqaUBKTNV-1">
          <mxGeometry x="790" y="528" width="40" height="30" as="geometry" />
        </mxCell>
        <mxCell id="TZgdga29-gHt7Y1s_UGH-124" value="yes" style="text;html=1;align=center;verticalAlign=middle;resizable=0;points=[];autosize=1;strokeColor=none;fillColor=none;" vertex="1" parent="WIyWlLk6GJQsqaUBKTNV-1">
          <mxGeometry x="980" y="528" width="40" height="30" as="geometry" />
        </mxCell>
        <mxCell id="TZgdga29-gHt7Y1s_UGH-125" value="game over" style="rounded=1;whiteSpace=wrap;html=1;" vertex="1" parent="WIyWlLk6GJQsqaUBKTNV-1">
          <mxGeometry x="860" y="640" width="120" height="40" as="geometry" />
        </mxCell>
      </root>
    </mxGraphModel>
  </diagram>
</mxfile>
